<svg width="86" height="63" viewBox="0 0 86 63" fill="none" xmlns="http://www.w3.org/2000/svg">
<g id="Group 2144">
<ellipse id="Ellipse 58" cx="2.17877" cy="3.1926" rx="2.17889" ry="2.28757" fill="#FF5C00"/>
<ellipse id="Ellipse 70" cx="2.17865" cy="41.3532" rx="2.17889" ry="2.28757" fill="#FF5C00"/>
<ellipse id="Ellipse 60" cx="34.7665" cy="3.1926" rx="2.17889" ry="2.28757" fill="#FF5C00"/>
<ellipse id="Ellipse 71" cx="34.7665" cy="41.3532" rx="2.17889" ry="2.28757" fill="#FF5C00"/>
<ellipse id="Ellipse 62" cx="67.3538" cy="3.1926" rx="2.17889" ry="2.28757" fill="#FF5C00"/>
<ellipse id="Ellipse 72" cx="67.3538" cy="41.3532" rx="2.17889" ry="2.28757" fill="#FF5C00"/>
<ellipse id="Ellipse 64" cx="2.17865" cy="22.2727" rx="2.17889" ry="2.28757" fill="#FF5C00"/>
<ellipse id="Ellipse 73" cx="2.17865" cy="60.4331" rx="2.17889" ry="2.28757" fill="#FF5C00"/>
<ellipse id="Ellipse 66" cx="34.7665" cy="22.2727" rx="2.17889" ry="2.28757" fill="#FF5C00"/>
<ellipse id="Ellipse 74" cx="34.7665" cy="60.4331" rx="2.17889" ry="2.28757" fill="#FF5C00"/>
<ellipse id="Ellipse 68" cx="67.3538" cy="22.2727" rx="2.17889" ry="2.28757" fill="#FF5C00"/>
<ellipse id="Ellipse 75" cx="67.3538" cy="60.4331" rx="2.17889" ry="2.28757" fill="#FF5C00"/>
<ellipse id="Ellipse 59" cx="18.4723" cy="3.1926" rx="2.17889" ry="2.28757" fill="#FF5C00"/>
<ellipse id="Ellipse 76" cx="18.4723" cy="41.3532" rx="2.17889" ry="2.28757" fill="#FF5C00"/>
<ellipse id="Ellipse 61" cx="51.0602" cy="3.1926" rx="2.17889" ry="2.28757" fill="#FF5C00"/>
<ellipse id="Ellipse 77" cx="51.0602" cy="41.3532" rx="2.17889" ry="2.28757" fill="#FF5C00"/>
<ellipse id="Ellipse 63" cx="83.6475" cy="3.1926" rx="2.17889" ry="2.28757" fill="#FF5C00"/>
<ellipse id="Ellipse 78" cx="83.6475" cy="41.3532" rx="2.17889" ry="2.28757" fill="#FF5C00"/>
<ellipse id="Ellipse 65" cx="18.4723" cy="22.2727" rx="2.17889" ry="2.28757" fill="#FF5C00"/>
<ellipse id="Ellipse 79" cx="18.4723" cy="60.4331" rx="2.17889" ry="2.28757" fill="#FF5C00"/>
<ellipse id="Ellipse 67" cx="51.0602" cy="22.2727" rx="2.17889" ry="2.28757" fill="#FF5C00"/>
<ellipse id="Ellipse 80" cx="51.0602" cy="60.4331" rx="2.17889" ry="2.28757" fill="#FF5C00"/>
<ellipse id="Ellipse 69" cx="83.6475" cy="22.2727" rx="2.17889" ry="2.28757" fill="#FF5C00"/>
<ellipse id="Ellipse 81" cx="83.6475" cy="60.4331" rx="2.17889" ry="2.28757" fill="#FF5C00"/>
</g>
</svg>
